<svg width="45" height="41" viewBox="0 0 45 41" fill="none" xmlns="http://www.w3.org/2000/svg">
<path d="M24.7887 20.296L30.3331 15.3817L12.425 6.46041C11.2381 5.89203 10.1262 5.81226 9.15125 6.43382L24.7887 20.296ZM31.2781 26.0496L37.0419 23.1761C38.1669 22.6177 38.7837 21.8266 38.7837 20.9491C38.7837 20.0733 38.1669 19.2806 37.0437 18.7221L31.8256 16.1245L25.9513 21.3297L31.2781 26.0496ZM8.1875 7.64205C8.0675 7.96945 8 8.33507 8 8.7356V33.1743C8 33.8075 8.1575 34.3526 8.4425 34.7864L23.6244 21.3281L8.1875 7.64205ZM24.7887 22.3585L9.69125 35.742C9.98 35.84 10.2912 35.8916 10.6194 35.8916C11.2044 35.8916 11.8137 35.7387 12.4344 35.4329L29.7875 26.7958L24.7887 22.3585Z" fill="white"/>
</svg>
